# xmcd CD database file
#
# Track frame offsets:
#	180
#	23672
#	46037
#	64517
#	82105
#	94028
#	114065
#	141663
#	163147
#	190775
#	204370
#	222930
#
# Disc length: 3265 seconds
#
# Revision: 0
# Processed by: cddbd v1.5.1PL0 Copyright (c) Steve Scherf et al.
# Submitted via: cdripper 1.0.7
#
DISCID=9d0cbf0c
DTITLE=Jimmie Lee Robinson - Guns, Gangs and Drugs
DYEAR=1997
DGENRE=Blues
TTITLE0=Guns, Gangs and Drugs
TTITLE1=Parchman Farm (I Shot a Man)
TTITLE2=So Long
TTITLE3=Houdley Voo Doo Man
TTITLE4=Two Left Foot Shoes
TTITLE5=Still Traveling
TTITLE6=Maxwell Street (Memories of Chicago)
TTITLE7=Peaches
TTITLE8=Maxwell Street (Memories of Chicago No. 2)
TTITLE9=They Told You
TTITLE10=Lulu
TTITLE11=The Great Lakes (All the Waters of the Worlds)
EXTD=YEAR: 1997
EXTT0=
EXTT1=
EXTT2=
EXTT3=
EXTT4=
EXTT5=
EXTT6=
EXTT7=
EXTT8=
EXTT9=
EXTT10=
EXTT11=
PLAYORDER=
